DataType=double
version=3
OpenSimVersion=4.5.2-2025-05-03-6a4c6ec41
endheader
time	q	/jointset/head_joint/q/speed
7.500000000000839	-0.6280062319475034	0.6516735110225307
7.50100000000084	-0.6273528609764829	0.655066350674427
7.50200000000084	-0.626696260469954	0.6581325707635977
7.50300000000084	-0.6260367405860434	0.660905095136626
7.504000000000841	-0.6253790555120129	0.6544629558527675
7.505000000000841	-0.6247263753649581	0.6508952561588428
7.506000000000841	-0.6240773653301982	0.6471227419990457
7.507000000000842	-0.6234318712474398	0.6438633624168932
7.508000000000842	-0.6227850181070274	0.6498408520076875
7.509000000000842	-0.6221335932295909	0.6530068208898042
7.510000000000843	-0.6214788774604446	0.6564226239294472
7.511000000000843	-0.6208209811755101	0.6593678413074078
7.512000000000843	-0.6201602647665577	0.6620628619466842
7.513000000000844	-0.6194969878318226	0.6644888836738845
7.514000000000844	-0.6188314006906411	0.6666832664319832
7.515000000000844	-0.6181637249529753	0.6686660689359656
7.516000000000845	-0.6174941614761318	0.6704587377163053
7.517000000000845	-0.6168228911658532	0.6720797293078572
7.518000000000845	-0.6161500772870341	0.6735458688166339
7.519000000000846	-0.6154758671460103	0.6748722482032308
7.520000000000846	-0.6147959188214391	0.6850222164393056
7.521000000000846	-0.6141119089759435	0.6829952759452779
7.522000000000847	-0.6134284261698091	0.6839681383513069
7.523000000000847	-0.6127443654061883	0.6841511880002706
7.524000000000847	-0.6120600411085123	0.6844952045544518
7.525000000000848	-0.6113754095451303	0.6847657173643092
7.526000000000848	-0.6106905134815931	0.6850242029539455
7.527000000000848	-0.6100053713360963	0.6852578794317458
7.528000000000849	-0.6093200051558235	0.6854722707255811
7.529000000000849	-0.6086344338669235	0.6856680949666222
7.530000000000849	-0.6079486751803449	0.6858470644204167
7.53100000000085	-0.6072627453122217	0.6860104564461538
7.53200000000085	-0.6065766592308656	0.6861594893253646
7.53300000000085	-0.605885955871961	0.6952449955569823
7.534000000000851	-0.6051877297600011	0.7012049700298328
7.535000000000851	-0.6044835546328843	0.7071430055245391
7.536000000000851	-0.6037738004431862	0.7123630760167562
7.537000000000852	-0.6030635371652485	0.7081611792293382
7.538000000000852	-0.6023561536939011	0.7066034710455135
7.539000000000852	-0.6016505285192814	0.7046445903608684
7.540000000000853	-0.6009466954045591	0.703019355956539
7.541000000000853	-0.6002444244157661	0.7015203424715453
7.542000000000853	-0.5995435740948227	0.7001780237753789
7.543000000000854	-0.5988440011721865	0.6989655489174945
7.544000000000854	-0.5981455811019081	0.697872321722388
7.545000000000854	-0.5974437262166259	0.7058351666731724
7.546000000000855	-0.5967354173240427	0.7107803142331237
7.547000000000855	-0.5960221257270176	0.7158005582264687
7.548000000000855	-0.5953041291758056	0.720190206158945
7.549000000000856	-0.5945819397497786	0.7241862930557148
7.550000000000856	-0.5938559533447431	0.7277841506474018
7.551000000000856	-0.5931265430443708	0.7310340714003677
7.552000000000857	-0.5923985158458674	0.7250179502538785
7.553000000000857	-0.5916750903592976	0.7218306613941786
7.554000000000857	-0.5909549751792774	0.7183973468199535
7.555000000000858	-0.5902380552788877	0.7154401114395904
7.556000000000858	-0.5895194908588484	0.7216863796168954
7.557000000000858	-0.5887961009399592	0.7250910922237508
7.558000000000859	-0.58806919490522	0.7287185986653015
7.559000000000859	-0.5873389088229779	0.7318511750082586
7.560000000000859	-0.5866056262164335	0.7347116362900353
7.56100000000086	-0.5858696275104043	0.737283363904375
7.56200000000086	-0.5851311817764144	0.7396056830081595
7.56300000000086	-0.584390527509647	0.7417004210285888
7.564000000000861	-0.5836478807723413	0.7435906163537752
7.565000000000861	-0.5829034361628953	0.7452961582088192
7.566000000000861	-0.5821573692777909	0.7468351611398182
7.567000000000862	-0.5814098385299713	0.7482238776230751
7.568000000000862	-0.5806609868847136	0.749476950464213
7.569000000000862	-0.579910943397097	0.7506075572084719
7.570000000000863	-0.5791598246019394	0.7516275607936308
7.571000000000863	-0.5784077357631973	0.7525476399675126
7.572000000000863	-0.577654771998824	0.7533774079559848
7.573000000000864	-0.5769010192930544	0.7541255189410971
7.574000000000864	-0.5761465554074942	0.7547997639721119
7.575000000000864	-0.5753914507011044	0.7554071572652241
7.576000000000865	-0.5746357688681984	0.7559540138783334
7.577000000000865	-0.573879567602648	0.7564460196170658
7.578000000000865	-0.5731228991956789	0.7568882939505013
7.579000000000866	-0.5723658110738961	0.7572854466352473
7.580000000000866	-0.5716038714012134	0.766591378477764
7.581000000000866	-0.5708342010188265	0.772746839218446
7.582000000000867	-0.5700628722461615	0.7699081522828273
7.583000000000867	-0.5692931946390402	0.7694445123386993
7.584000000000867	-0.5685242206235794	0.7685009700380139
7.585000000000868	-0.5677560792000641	0.7677793299569967
7.586000000000868	-0.5669886414912952	0.7670935416319876
7.587000000000868	-0.5662218531746404	0.7664805466405691
7.588000000000869	-0.5654556503756867	0.7659225069336589
7.589000000000869	-0.5646899797802352	0.7654161401672772
7.590000000000869	-0.5639247927872073	0.7649553024601862
7.59100000000087	-0.5631555713499758	0.7734850139231961
7.59200000000087	-0.5623793586359488	0.7789378315421619
7.59300000000087	-0.5615976821667673	0.7844125047759731
7.594000000000871	-0.5608108702862358	0.7892086358549112
7.595000000000871	-0.5600194806290786	0.7935680414746097
7.596000000000871	-0.559223950105865	0.7974903528507887
7.597000000000872	-0.558429163612207	0.7920799835251114
7.598000000000872	-0.5576384047752607	0.7894350515543609
7.599000000000872	-0.5568504419970166	0.7864878741566992
7.600000000000873	-0.5560652137733382	0.783965950268723
7.601000000000873	-0.5552824034527929	0.7816520746926588
7.602000000000873	-0.5544973168695967	0.7885184666869313
7.603000000000874	-0.5537068223729394	0.7924678822429102
7.604000000000874	-0.5529122941935177	0.7965858174198905
7.605000000000874	-0.5521139216706451	0.8001565549645062
7.606000000000875	-0.5513121375642939	0.8034089716298707
7.607000000000875	-0.5505072663092376	0.8063308406996573
7.608000000000875	-0.5496996166816729	0.8089657059944027
7.609000000000876	-0.5488894629069088	0.8113391253538264
7.610000000000876	-0.5480770532250679	0.8134775112262672
7.611000000000876	-0.5472670860912953	0.8064540360698809
7.612000000000877	-0.5464626814541318	0.802352535360279
7.613000000000877	-0.5456579844521821	0.8070387633364469
7.614000000000877	-0.5448498820058103	0.8091634114255494
7.615000000000878	-0.5440394992727495	0.811599327708029
7.616000000000878	-0.543226867830006	0.8136608218814028
7.617000000000878	-0.542412261821316	0.8155484516052681
7.618000000000879	-0.5415958670516926	0.8172383363709474
7.619000000000879	-0.5407778664676393	0.818760073698108
7.620000000000879	-0.5399584212816764	0.8201275339605688
7.62100000000088	-0.5391376779323174	0.8213563947500474
7.62200000000088	-0.5383157683620879	0.8224599704019881
7.62300000000088	-0.5374928117639929	0.8234504455807926
7.624000000000881	-0.5366689157793474	0.8243387389629691
7.625000000000881	-0.5358441776693177	0.8251346921353974
7.626000000000881	-0.5350186853459498	0.8258471617209294
7.627000000000882	-0.5341925183059446	0.8264841217588079
7.628000000000882	-0.5333657484696049	0.8270527509809675
7.629000000000882	-0.5325384409362613	0.8275595125769816
7.630000000000883	-0.5317106546640739	0.8280102256784658
7.631000000000883	-0.5308824430818846	0.8284101297710197
7.632000000000883	-0.530053854639889	0.8287639426459669
7.633000000000884	-0.5292249333052501	0.8290759125616648
7.634000000000884	-0.5283957190081605	0.8293498651874956
7.635000000000884	-0.5275617731612064	0.8385389948446036
7.636000000000885	-0.5267202105270024	0.8445834124083315
7.637000000000885	-0.5258726230712333	0.8505886160755975
7.638000000000885	-0.5250238720461853	0.8469105455868269
7.639000000000886	-0.5241774855900887	0.8458594848052321
7.640000000000886	-0.5233323857632197	0.8443372901051021
7.641000000000886	-0.5224886659858813	0.8430993890446064
7.642000000000887	-0.5216461449155239	0.8419398788341081
7.643000000000887	-0.5208047261112	0.840894859347161
7.644000000000887	-0.5199643065076219	0.8399414793679302
7.645000000000888	-0.5191203229483041	0.848022757273124
7.646000000000888	-0.5182697770231858	0.8530661871538523
7.647000000000888	-0.5174141590791728	0.8581667763118922
7.648000000000889	-0.5165537639421005	0.862620555507158
7.649000000000889	-0.5156891190961759	0.8666661780349416
7.650000000000889	-0.5148206343130198	0.8703004153719227
7.65100000000089	-0.5139531700642418	0.8646251113139888
7.65200000000089	-0.5130899879930667	0.8617360733868334
7.65300000000089	-0.5122298367122283	0.858563539594362
7.654000000000891	-0.5113726369036627	0.8558331375400362
7.655000000000891	-0.5105180558797501	0.8533259778622498
7.656000000000891	-0.5096613850386732	0.8600127632883364
7.657000000000892	-0.5087994797358534	0.8637948819565121
